<?xml version="1.0" encoding="UTF-8" standalone="no"?>
<svg
   viewBox="0 0 61.56 200"
   width="100%"
   stroke-width="2"
   fill="none"
   stroke="black"
   stroke-linecap="round"
   version="1.1"
   id="svg4"
   sodipodi:docname="B.svg"
   inkscape:version="1.1.2 (0a00cf5339, 2022-02-04)"
   xmlns:inkscape="http://www.inkscape.org/namespaces/inkscape"
   xmlns:sodipodi="http://sodipodi.sourceforge.net/DTD/sodipodi-0.dtd"
   xmlns="http://www.w3.org/2000/svg"
   xmlns:svg="http://www.w3.org/2000/svg">
  <defs
     id="defs8" />
  <sodipodi:namedview
     id="namedview6"
     pagecolor="#505050"
     bordercolor="#eeeeee"
     borderopacity="1"
     inkscape:pageshadow="0"
     inkscape:pageopacity="0"
     inkscape:pagecheckerboard="0"
     showgrid="false"
     inkscape:zoom="3.91"
     inkscape:cx="30.818414"
     inkscape:cy="99.872123"
     inkscape:window-width="1846"
     inkscape:window-height="1016"
     inkscape:window-x="0"
     inkscape:window-y="0"
     inkscape:window-maximized="1"
     inkscape:current-layer="svg4" />
  <path
     vector-effect="non-scaling-stroke"
     d="m 25.46,34.66 c -3.98,21.36 -7.8,44.06 -12.06,65.34 m 12.06,-65.34 c 0,0 24.76,-0.12 24.76,-0.12 c 0,0 12,0.88 11.3,10.68 c 0,0 0.64,10.68 -8.78,17.08 c 0,0 -4.54,2.26 -6.3,2.4 c 0,0 -26.12,-0.26 -26.12,-0.26 m 26,0.26 c 0,0 4.78,2.56 8.74,6.9 c 2.74,5.38 4.08,9.44 -5.22,25.14 c 0,0 -2.96,3.26 -5.78,3.26 c 0,0 -30.66,0 -30.66,0"
     id="path2" />
</svg>
