<?xml version="1.0" encoding="UTF-8" standalone="no"?>
<svg
   viewBox="0 0 68.26 200"
   width="100%"
   stroke-width="2"
   fill="none"
   stroke="black"
   stroke-linecap="round"
   version="1.1"
   id="svg4"
   sodipodi:docname="O.svg"
   inkscape:version="1.1.2 (0a00cf5339, 2022-02-04)"
   xmlns:inkscape="http://www.inkscape.org/namespaces/inkscape"
   xmlns:sodipodi="http://sodipodi.sourceforge.net/DTD/sodipodi-0.dtd"
   xmlns="http://www.w3.org/2000/svg"
   xmlns:svg="http://www.w3.org/2000/svg">
  <defs
     id="defs8" />
  <sodipodi:namedview
     id="namedview6"
     pagecolor="#505050"
     bordercolor="#eeeeee"
     borderopacity="1"
     inkscape:pageshadow="0"
     inkscape:pageopacity="0"
     inkscape:pagecheckerboard="0"
     showgrid="false"
     inkscape:zoom="3.91"
     inkscape:cx="34.143223"
     inkscape:cy="99.872123"
     inkscape:window-width="1846"
     inkscape:window-height="1016"
     inkscape:window-x="0"
     inkscape:window-y="0"
     inkscape:window-maximized="1"
     inkscape:current-layer="svg4" />
  <path
     vector-effect="non-scaling-stroke"
     d="m 68.02,45.9 c 1.52,15.26 -4.46,36.3 -7.54,41.36 c -5.52,9.04 -6.8,8.66 -13.7,11.3 c -2.44,0.94 -7.08,1.42 -11.56,1.44 c -3.92,0.02 -7.74,-0.3 -9.92,-0.94 c -8.92,-2.64 -9.18,-11.3 -9.18,-11.3 c -3.26,-13.32 6.16,-38.34 6.16,-38.34 c 5.16,-14.7 18.48,-15.32 18.48,-15.32 c 0,0 10.68,-1.14 14.32,-0.12 c 0,0 11.92,1.64 12.94,11.92 c 0,0 0,0 0,0"
     id="path2" />
</svg>
